<svg xmlns="http://www.w3.org/2000/svg" viewBox="0 0 300 120">
  <defs>
    <linearGradient id="logoGradient" x1="0%" y1="0%" x2="100%" y2="100%">
      <stop offset="0%" stop-color="#fff44f" />
      <stop offset="100%" stop-color="#ff8c1a" />
    </linearGradient>
  </defs>
  <g>
    <path d="M60,20 C50,20 40,30 40,40 L40,80 C40,90 50,100 60,100 L90,100 C100,100 110,90 110,80 L110,40 C110,30 100,20 90,20 L60,20 Z" fill="none" stroke="#fff44f" stroke-width="8" />
    <path d="M60,40 C55,40 50,45 50,50 L50,80 C50,85 55,90 60,90 L80,90 C85,90 90,85 90,80 L90,50 C90,45 85,40 80,40 L60,40 Z" fill="none" stroke="#ff8c1a" stroke-width="8" />
  </g>
  <text x="120" y="70" font-family="Arial, sans-serif" font-weight="bold" font-size="28" fill="#ff8c1a">Globe</text>
  <text x="195" y="70" font-family="Arial, sans-serif" font-weight="bold" font-size="28" fill="#fff44f">Nest</text>
  <text x="120" y="95" font-family="Arial, sans-serif" font-size="14" fill="#fff44f">Solutions</text>
</svg>